<mxfile host="app.diagrams.net" agent="Mozilla/5.0 (Windows NT 10.0; Win64; x64) AppleWebKit/537.36 (KHTML, like Gecko) Chrome/127.0.0.0 Safari/537.36" version="24.7.6">
  <diagram name="Page-1" id="XRTNF39psAJcGLrO1x4M">
    <mxGraphModel dx="1434" dy="778" grid="1" gridSize="10" guides="1" tooltips="1" connect="1" arrows="1" fold="1" page="1" pageScale="1" pageWidth="850" pageHeight="1100" math="0" shadow="0">
      <root>
        <mxCell id="0" />
        <mxCell id="1" parent="0" />
        <mxCell id="gtQ3XL8IRw6pExn9DQV4-1" value="" style="rounded=0;whiteSpace=wrap;html=1;" vertex="1" parent="1">
          <mxGeometry x="360" y="600" width="130" height="80" as="geometry" />
        </mxCell>
        <mxCell id="gtQ3XL8IRw6pExn9DQV4-2" value="&lt;font style=&quot;font-size: 17px;&quot;&gt;Linear Algebra&lt;/font&gt;" style="text;strokeColor=none;align=center;fillColor=none;html=1;verticalAlign=middle;whiteSpace=wrap;rounded=0;" vertex="1" parent="1">
          <mxGeometry x="371" y="610" width="110" height="60" as="geometry" />
        </mxCell>
        <mxCell id="gtQ3XL8IRw6pExn9DQV4-3" value="" style="endArrow=none;html=1;rounded=0;entryX=0.5;entryY=1;entryDx=0;entryDy=0;" edge="1" parent="1" target="gtQ3XL8IRw6pExn9DQV4-1">
          <mxGeometry width="50" height="50" relative="1" as="geometry">
            <mxPoint x="425" y="720" as="sourcePoint" />
            <mxPoint x="430" y="710" as="targetPoint" />
          </mxGeometry>
        </mxCell>
        <mxCell id="gtQ3XL8IRw6pExn9DQV4-4" value="&lt;font style=&quot;font-size: 17px;&quot;&gt;Linear Transformation&lt;/font&gt;" style="rounded=0;whiteSpace=wrap;html=1;" vertex="1" parent="1">
          <mxGeometry x="360" y="720" width="130" height="80" as="geometry" />
        </mxCell>
        <mxCell id="gtQ3XL8IRw6pExn9DQV4-6" value="&lt;font style=&quot;font-size: 16px;&quot;&gt;Translation&lt;/font&gt;:&lt;br&gt;shifting position&lt;br&gt;centerlization" style="shape=hexagon;perimeter=hexagonPerimeter2;whiteSpace=wrap;html=1;fixedSize=1;" vertex="1" parent="1">
          <mxGeometry x="210" y="840" width="120" height="80" as="geometry" />
        </mxCell>
        <mxCell id="gtQ3XL8IRw6pExn9DQV4-7" value="&lt;font style=&quot;font-size: 16px;&quot;&gt;Scaling&lt;/font&gt;:&lt;br&gt;normalization&lt;br&gt;standarization" style="shape=hexagon;perimeter=hexagonPerimeter2;whiteSpace=wrap;html=1;fixedSize=1;" vertex="1" parent="1">
          <mxGeometry x="365" y="840" width="120" height="80" as="geometry" />
        </mxCell>
        <mxCell id="gtQ3XL8IRw6pExn9DQV4-8" value="&lt;font style=&quot;font-size: 16px;&quot;&gt;Rotation&lt;/font&gt;:&lt;br&gt;computer vision" style="shape=hexagon;perimeter=hexagonPerimeter2;whiteSpace=wrap;html=1;fixedSize=1;" vertex="1" parent="1">
          <mxGeometry x="520" y="840" width="120" height="80" as="geometry" />
        </mxCell>
        <mxCell id="gtQ3XL8IRw6pExn9DQV4-11" value="" style="endArrow=none;dashed=1;html=1;dashPattern=1 3;strokeWidth=2;rounded=0;entryX=0.5;entryY=1;entryDx=0;entryDy=0;exitX=0.5;exitY=0;exitDx=0;exitDy=0;" edge="1" parent="1" source="gtQ3XL8IRw6pExn9DQV4-7" target="gtQ3XL8IRw6pExn9DQV4-4">
          <mxGeometry width="50" height="50" relative="1" as="geometry">
            <mxPoint x="310" y="830" as="sourcePoint" />
            <mxPoint x="345" y="770.0000000000001" as="targetPoint" />
          </mxGeometry>
        </mxCell>
        <mxCell id="gtQ3XL8IRw6pExn9DQV4-12" value="" style="endArrow=none;dashed=1;html=1;dashPattern=1 3;strokeWidth=2;rounded=0;exitX=0.5;exitY=0;exitDx=0;exitDy=0;entryX=0.5;entryY=1;entryDx=0;entryDy=0;" edge="1" parent="1" source="gtQ3XL8IRw6pExn9DQV4-8" target="gtQ3XL8IRw6pExn9DQV4-4">
          <mxGeometry width="50" height="50" relative="1" as="geometry">
            <mxPoint x="530" y="840" as="sourcePoint" />
            <mxPoint x="580" y="790" as="targetPoint" />
          </mxGeometry>
        </mxCell>
        <mxCell id="gtQ3XL8IRw6pExn9DQV4-13" value="" style="endArrow=none;dashed=1;html=1;dashPattern=1 3;strokeWidth=2;rounded=0;exitX=0.5;exitY=0;exitDx=0;exitDy=0;entryX=0.5;entryY=1;entryDx=0;entryDy=0;" edge="1" parent="1" source="gtQ3XL8IRw6pExn9DQV4-6" target="gtQ3XL8IRw6pExn9DQV4-4">
          <mxGeometry width="50" height="50" relative="1" as="geometry">
            <mxPoint x="260" y="830" as="sourcePoint" />
            <mxPoint x="300" y="780" as="targetPoint" />
          </mxGeometry>
        </mxCell>
        <mxCell id="gtQ3XL8IRw6pExn9DQV4-19" value="&lt;font style=&quot;font-size: 17px;&quot;&gt;Eigen vectors &amp;amp;&lt;/font&gt;&lt;div style=&quot;font-size: 17px;&quot;&gt;&lt;font style=&quot;font-size: 17px;&quot;&gt;Eigen values&lt;/font&gt;&lt;/div&gt;" style="rounded=0;whiteSpace=wrap;html=1;" vertex="1" parent="1">
          <mxGeometry x="360" y="470" width="130" height="80" as="geometry" />
        </mxCell>
        <mxCell id="gtQ3XL8IRw6pExn9DQV4-20" value="" style="endArrow=none;html=1;rounded=0;entryX=0.5;entryY=1;entryDx=0;entryDy=0;" edge="1" parent="1" target="gtQ3XL8IRw6pExn9DQV4-19">
          <mxGeometry width="50" height="50" relative="1" as="geometry">
            <mxPoint x="424" y="600" as="sourcePoint" />
            <mxPoint x="424" y="560" as="targetPoint" />
          </mxGeometry>
        </mxCell>
        <mxCell id="gtQ3XL8IRw6pExn9DQV4-21" value="&lt;font style=&quot;font-size: 17px;&quot;&gt;Categorization&lt;/font&gt;" style="shape=hexagon;perimeter=hexagonPerimeter2;whiteSpace=wrap;html=1;fixedSize=1;" vertex="1" parent="1">
          <mxGeometry x="210" y="340" width="120" height="80" as="geometry" />
        </mxCell>
        <mxCell id="gtQ3XL8IRw6pExn9DQV4-22" value="&lt;font style=&quot;font-size: 17px;&quot;&gt;Clustering&lt;/font&gt;" style="shape=hexagon;perimeter=hexagonPerimeter2;whiteSpace=wrap;html=1;fixedSize=1;" vertex="1" parent="1">
          <mxGeometry x="520" y="340" width="120" height="80" as="geometry" />
        </mxCell>
        <mxCell id="gtQ3XL8IRw6pExn9DQV4-23" value="" style="endArrow=none;dashed=1;html=1;dashPattern=1 3;strokeWidth=2;rounded=0;entryX=0.5;entryY=1;entryDx=0;entryDy=0;" edge="1" parent="1" target="gtQ3XL8IRw6pExn9DQV4-21">
          <mxGeometry width="50" height="50" relative="1" as="geometry">
            <mxPoint x="430" y="470" as="sourcePoint" />
            <mxPoint x="230" y="440" as="targetPoint" />
          </mxGeometry>
        </mxCell>
        <mxCell id="gtQ3XL8IRw6pExn9DQV4-24" value="" style="endArrow=none;dashed=1;html=1;dashPattern=1 3;strokeWidth=2;rounded=0;entryX=0.5;entryY=1;entryDx=0;entryDy=0;exitX=0.5;exitY=0;exitDx=0;exitDy=0;" edge="1" parent="1" source="gtQ3XL8IRw6pExn9DQV4-19" target="gtQ3XL8IRw6pExn9DQV4-22">
          <mxGeometry width="50" height="50" relative="1" as="geometry">
            <mxPoint x="460" y="460" as="sourcePoint" />
            <mxPoint x="510" y="410" as="targetPoint" />
          </mxGeometry>
        </mxCell>
        <mxCell id="gtQ3XL8IRw6pExn9DQV4-25" value="&lt;font style=&quot;font-size: 20px;&quot;&gt;One Hot&amp;nbsp; Encoding&lt;/font&gt;" style="rounded=0;whiteSpace=wrap;html=1;" vertex="1" parent="1">
          <mxGeometry x="361" y="200" width="130" height="80" as="geometry" />
        </mxCell>
        <mxCell id="gtQ3XL8IRw6pExn9DQV4-29" value="" style="endArrow=none;dashed=1;html=1;dashPattern=1 3;strokeWidth=2;rounded=0;entryX=0.5;entryY=0;entryDx=0;entryDy=0;exitX=0.5;exitY=1;exitDx=0;exitDy=0;" edge="1" parent="1" source="gtQ3XL8IRw6pExn9DQV4-25" target="gtQ3XL8IRw6pExn9DQV4-22">
          <mxGeometry width="50" height="50" relative="1" as="geometry">
            <mxPoint x="290" y="280" as="sourcePoint" />
            <mxPoint x="340" y="230" as="targetPoint" />
          </mxGeometry>
        </mxCell>
        <mxCell id="gtQ3XL8IRw6pExn9DQV4-30" value="" style="endArrow=none;dashed=1;html=1;dashPattern=1 3;strokeWidth=2;rounded=0;entryX=0.5;entryY=1;entryDx=0;entryDy=0;" edge="1" parent="1" target="gtQ3XL8IRw6pExn9DQV4-25">
          <mxGeometry width="50" height="50" relative="1" as="geometry">
            <mxPoint x="270" y="340" as="sourcePoint" />
            <mxPoint x="320" y="290" as="targetPoint" />
          </mxGeometry>
        </mxCell>
        <mxCell id="gtQ3XL8IRw6pExn9DQV4-37" value="&lt;font style=&quot;font-size: 17px;&quot;&gt;Practical Component Analysis&lt;/font&gt;" style="shape=hexagon;perimeter=hexagonPerimeter2;whiteSpace=wrap;html=1;fixedSize=1;" vertex="1" parent="1">
          <mxGeometry x="210" y="60" width="120" height="80" as="geometry" />
        </mxCell>
        <mxCell id="gtQ3XL8IRw6pExn9DQV4-38" value="&lt;font style=&quot;font-size: 17px;&quot;&gt;Singular Value Decomposition&lt;/font&gt;" style="shape=hexagon;perimeter=hexagonPerimeter2;whiteSpace=wrap;html=1;fixedSize=1;" vertex="1" parent="1">
          <mxGeometry x="520" y="60" width="120" height="80" as="geometry" />
        </mxCell>
        <mxCell id="gtQ3XL8IRw6pExn9DQV4-40" value="" style="endArrow=none;dashed=1;html=1;dashPattern=1 3;strokeWidth=2;rounded=0;exitX=0.5;exitY=0;exitDx=0;exitDy=0;" edge="1" parent="1" source="gtQ3XL8IRw6pExn9DQV4-25">
          <mxGeometry width="50" height="50" relative="1" as="geometry">
            <mxPoint x="530" y="190" as="sourcePoint" />
            <mxPoint x="580" y="140" as="targetPoint" />
          </mxGeometry>
        </mxCell>
        <mxCell id="gtQ3XL8IRw6pExn9DQV4-41" value="" style="endArrow=none;dashed=1;html=1;dashPattern=1 3;strokeWidth=2;rounded=0;entryX=0.5;entryY=0;entryDx=0;entryDy=0;exitX=0.5;exitY=1;exitDx=0;exitDy=0;" edge="1" parent="1" source="gtQ3XL8IRw6pExn9DQV4-37" target="gtQ3XL8IRw6pExn9DQV4-25">
          <mxGeometry width="50" height="50" relative="1" as="geometry">
            <mxPoint x="290" y="260" as="sourcePoint" />
            <mxPoint x="340" y="210" as="targetPoint" />
          </mxGeometry>
        </mxCell>
        <mxCell id="gtQ3XL8IRw6pExn9DQV4-43" value="&lt;font style=&quot;font-size: 17px;&quot;&gt;Linear Algebra allows us to deal with vectors and matrices using &#39;Linear Transformation&#39; which contains &#39;Translation&#39;&amp;nbsp; , &#39;Scaling&#39; and &#39;Rotation&#39;.&lt;br&gt;&lt;/font&gt;&lt;div style=&quot;font-size: 17px;&quot;&gt;&lt;font style=&quot;font-size: 17px;&quot;&gt;In addition to providing us with &#39;Eigen Vectors&#39; and &#39;Eigen Values&#39; which help us perform &#39;Clustering&#39; (also called grouping) and &#39;Categorization&#39; where we use both in &#39;One Hot Encoding&#39; such as &#39;PCA&#39; which is used in dimensionality reduction and &#39;SVD&#39; which directly measures how important and effecting every single feature is compared to the rest of them.&lt;/font&gt;&lt;/div&gt;" style="text;html=1;align=left;verticalAlign=middle;whiteSpace=wrap;rounded=0;" vertex="1" parent="1">
          <mxGeometry x="40" y="920" width="770" height="150" as="geometry" />
        </mxCell>
      </root>
    </mxGraphModel>
  </diagram>
</mxfile>
